<svg xmlns="http://www.w3.org/2000/svg" width="762.948" height="629.446" viewBox="0 0 762.948 629.446">
  <g id="Group_277" data-name="Group 277" transform="translate(-156.818 -4511.554)">
    <path id="Path_2" data-name="Path 2" d="M1397.755,4464.8c-105,20.153-121.6,17.578-178.1,95.033S1178.468,4748.9,1118,4801.92s-67.438,211.657,77.871,213.175,192.3-33.944,270.134,0,245.719,41.9,287.462-16.473,172.679-167.077,0-258.74S1541.439,4515.8,1541.439,4515.8,1502.759,4444.646,1397.755,4464.8Z" transform="translate(-920.588 50.35)" fill="#e6f6ff"/>
    <rect id="Rectangle_16" data-name="Rectangle 16" width="580" height="580" rx="45" transform="translate(205 4561)" fill="#fff0f0"/>
    <g id="Group_4" data-name="Group 4" transform="translate(-889 4311)">
      <circle id="Ellipse_4" data-name="Ellipse 4" cx="42" cy="42" r="42" transform="translate(1342 498)" fill="#fff" opacity="0.5"/>
      <circle id="Ellipse_5" data-name="Ellipse 5" cx="36" cy="36" r="36" transform="translate(1348 504)" fill="#fff"/>
      <path id="Icon_awesome-play" data-name="Icon awesome-play" d="M29.841,15.1,5.091.464A3.356,3.356,0,0,0,0,3.368V32.625a3.372,3.372,0,0,0,5.091,2.9L29.841,20.9a3.372,3.372,0,0,0,0-5.808Z" transform="translate(1372.35 521.997)" fill="#ffb49a"/>
    </g>
  </g>
</svg>
